<?xml version="1.0" encoding="UTF-8"?>
<!DOCTYPE svg PUBLIC "-//W3C//DTD SVG 1.1//EN" "http://www.w3.org/Graphics/SVG/1.1/DTD/svg11.dtd">
<svg version="1.1" xmlns="http://www.w3.org/2000/svg" xmlns:xlink="http://www.w3.org/1999/xlink" x="0px" y="0px" width="1200" height="1200" viewBox="0, 0, 1200, 1200">
  <g id="Layer 3 Copy Copy Copy">
    <path d="M431.766,351.772 C472.654,351.772 505.8,319.1 505.8,278.797 L505.8,103.656 C505.8,63.352 472.654,30.68 431.766,30.68 C390.878,30.68 357.731,63.352 357.731,103.656 L357.731,278.797 C357.731,319.1 390.878,351.772 431.766,351.772 z" fill="#000000"/>
    <path d="M535.414,230.274 L535.414,270.503 C535.414,329.216 489.008,377.48 431.766,377.48 C374.522,377.48 328.118,329.216 328.118,270.503 L328.118,230.274 L298.504,230.274 L298.504,275.836 C298.504,346.19 350.33,399.454 416.959,407.01 L416.959,473.27 L357.731,473.27 L357.731,503.645 L416.959,503.645 L446.573,503.645 L505.8,503.645 L505.8,473.27 L446.573,473.27 L446.573,407.01 C513.201,399.454 565.027,346.19 565.027,275.836 L565.027,230.274 L535.414,230.274 z" fill="#000000"/>
    <path d="M703.121,480.645 L703.121,255.637 C647.603,255.637 599.93,213.953 599.93,155.133 C599.93,96.313 644.937,54.629 700.455,54.629 L901.504,54.629 L901.504,99.215 L847.242,99.215 L847.242,480.645 L800.979,480.645 L800.979,99.215 L750.717,99.215 L750.717,480.645 z" fill="#000000"/>
    <path d="M227.128,907 L244.783,851.681 L235.367,851.681 L222.955,896.942 L222.741,896.942 L211.185,851.681 L201.234,851.681 L190.106,896.942 L189.892,896.942 L177.373,851.681 L167.315,851.681 L185.077,907 L194.921,907 L206.049,863.023 L206.263,863.023 L217.498,907 z M260.084,879.394 Q260.084,874.365 261.422,870.459 Q262.759,866.554 265.113,863.879 Q267.467,861.204 270.624,859.813 Q273.78,858.422 277.311,858.422 Q280.842,858.422 283.999,859.813 Q287.155,861.204 289.509,863.879 Q291.863,866.554 293.201,870.459 Q294.538,874.365 294.538,879.394 Q294.538,884.423 293.201,888.328 Q291.863,892.234 289.509,894.856 Q287.155,897.477 283.999,898.868 Q280.842,900.259 277.311,900.259 Q273.78,900.259 270.624,898.868 Q267.467,897.477 265.113,894.856 Q262.759,892.234 261.422,888.328 Q260.084,884.423 260.084,879.394 z M250.454,879.394 Q250.454,885.493 252.166,890.736 Q253.878,895.979 257.302,899.885 Q260.726,903.79 265.755,905.984 Q270.784,908.177 277.311,908.177 Q283.945,908.177 288.921,905.984 Q293.896,903.79 297.32,899.885 Q300.744,895.979 302.456,890.736 Q304.168,885.493 304.168,879.394 Q304.168,873.295 302.456,867.998 Q300.744,862.702 297.32,858.797 Q293.896,854.891 288.921,852.644 Q283.945,850.397 277.311,850.397 Q270.784,850.397 265.755,852.644 Q260.726,854.891 257.302,858.797 Q253.878,862.702 252.166,867.998 Q250.454,873.295 250.454,879.394 z M393.62,906.786 L393.62,899.724 Q392.015,900.259 390.838,900.259 Q388.698,900.259 388.324,898.761 Q387.949,897.263 387.949,894.053 L387.949,865.591 Q387.949,860.776 386.13,857.78 Q384.311,854.784 381.315,853.125 Q378.319,851.467 374.628,850.932 Q370.936,850.397 367.191,850.397 Q362.59,850.397 358.417,851.36 Q354.244,852.323 351.034,854.516 Q347.824,856.71 345.898,860.241 Q343.972,863.772 343.758,868.908 L352.853,868.908 Q353.174,862.809 357.026,860.615 Q360.878,858.422 366.656,858.422 Q368.796,858.422 370.99,858.743 Q373.183,859.064 374.949,860.027 Q376.714,860.99 377.838,862.809 Q378.961,864.628 378.961,867.624 Q378.961,870.192 377.463,871.529 Q375.965,872.867 373.397,873.562 Q370.829,874.258 367.459,874.633 Q364.088,875.007 360.343,875.756 Q356.812,876.398 353.442,877.361 Q350.071,878.324 347.45,880.196 Q344.828,882.069 343.223,885.065 Q341.618,888.061 341.618,892.769 Q341.618,896.942 343.063,899.885 Q344.507,902.827 347.022,904.7 Q349.536,906.572 352.853,907.375 Q356.17,908.177 359.915,908.177 Q365.693,908.177 370.669,906.198 Q375.644,904.218 379.389,899.724 Q379.389,904.218 381.476,906.198 Q383.562,908.177 387.093,908.177 Q391.266,908.177 393.62,906.786 z M378.854,878.431 L378.854,887.74 Q378.854,889.666 377.891,891.859 Q376.928,894.053 374.895,895.925 Q372.862,897.798 369.652,899.029 Q366.442,900.259 361.948,900.259 Q359.915,900.259 357.936,899.831 Q355.956,899.403 354.512,898.44 Q353.067,897.477 352.158,895.925 Q351.248,894.374 351.248,892.127 Q351.248,888.703 352.8,886.724 Q354.351,884.744 356.812,883.674 Q359.273,882.604 362.376,882.122 Q365.479,881.641 368.529,881.266 Q371.578,880.892 374.36,880.304 Q377.142,879.715 378.854,878.431 z M402.608,830.602 L402.608,907 L411.703,907 L411.703,830.602 z M426.362,830.602 L426.362,907 L435.457,907 L435.457,830.602 z M487.994,874.044 L456.215,874.044 Q456.429,870.834 457.606,867.998 Q458.783,865.163 460.816,863.023 Q462.849,860.883 465.685,859.653 Q468.52,858.422 472.051,858.422 Q475.475,858.422 478.311,859.653 Q481.146,860.883 483.233,862.969 Q485.319,865.056 486.55,867.945 Q487.78,870.834 487.994,874.044 z M496.768,889.452 L487.78,889.452 Q486.603,894.909 482.912,897.584 Q479.22,900.259 473.442,900.259 Q468.948,900.259 465.631,898.761 Q462.314,897.263 460.174,894.748 Q458.034,892.234 457.071,888.971 Q456.108,885.707 456.215,882.069 L497.624,882.069 Q497.838,877.04 496.715,871.476 Q495.591,865.912 492.649,861.204 Q489.706,856.496 484.838,853.446 Q479.969,850.397 472.586,850.397 Q466.915,850.397 462.154,852.537 Q457.392,854.677 453.915,858.529 Q450.437,862.381 448.511,867.624 Q446.585,872.867 446.585,879.18 Q446.799,885.493 448.458,890.843 Q450.116,896.193 453.433,900.045 Q456.75,903.897 461.619,906.037 Q466.487,908.177 473.121,908.177 Q482.537,908.177 488.743,903.469 Q494.949,898.761 496.768,889.452 z M512.604,889.559 L503.509,889.559 Q503.723,894.695 505.649,898.279 Q507.575,901.864 510.785,904.057 Q513.995,906.251 518.168,907.214 Q522.341,908.177 526.942,908.177 Q531.115,908.177 535.342,907.375 Q539.568,906.572 542.939,904.539 Q546.309,902.506 548.396,899.189 Q550.482,895.872 550.482,890.843 Q550.482,886.884 548.931,884.209 Q547.379,881.534 544.865,879.768 Q542.35,878.003 539.087,876.933 Q535.823,875.863 532.399,875.114 Q529.189,874.365 525.979,873.669 Q522.769,872.974 520.201,871.958 Q517.633,870.941 515.975,869.39 Q514.316,867.838 514.316,865.484 Q514.316,863.344 515.386,862.006 Q516.456,860.669 518.168,859.867 Q519.88,859.064 521.967,858.743 Q524.053,858.422 526.086,858.422 Q528.333,858.422 530.527,858.904 Q532.72,859.385 534.539,860.455 Q536.358,861.525 537.535,863.291 Q538.712,865.056 538.926,867.731 L548.021,867.731 Q547.7,862.702 545.881,859.331 Q544.062,855.961 541.013,853.982 Q537.963,852.002 534.004,851.2 Q530.045,850.397 525.337,850.397 Q521.699,850.397 518.008,851.307 Q514.316,852.216 511.374,854.089 Q508.431,855.961 506.559,858.957 Q504.686,861.953 504.686,866.126 Q504.686,871.476 507.361,874.472 Q510.036,877.468 514.049,879.127 Q518.061,880.785 522.769,881.695 Q527.477,882.604 531.49,883.727 Q535.502,884.851 538.177,886.67 Q540.852,888.489 540.852,892.02 Q540.852,894.588 539.568,896.247 Q538.284,897.905 536.305,898.761 Q534.325,899.617 531.971,899.938 Q529.617,900.259 527.477,900.259 Q524.695,900.259 522.074,899.724 Q519.452,899.189 517.366,897.958 Q515.279,896.728 513.995,894.641 Q512.711,892.555 512.604,889.559 z M596.92,879.822 Q596.92,875.756 597.776,871.904 Q598.632,868.052 600.558,865.056 Q602.484,862.06 605.694,860.241 Q608.904,858.422 613.505,858.422 Q618.213,858.422 621.53,860.188 Q624.847,861.953 626.934,864.842 Q629.02,867.731 629.983,871.529 Q630.946,875.328 630.946,879.394 Q630.946,883.246 630.037,886.991 Q629.127,890.736 627.094,893.679 Q625.061,896.621 621.851,898.44 Q618.641,900.259 614.04,900.259 Q609.653,900.259 606.39,898.547 Q603.126,896.835 601.04,893.946 Q598.953,891.057 597.937,887.365 Q596.92,883.674 596.92,879.822 z M639.72,907 L639.72,830.602 L630.625,830.602 L630.625,859.064 L630.411,859.064 Q628.913,856.603 626.72,854.945 Q624.526,853.286 622.065,852.269 Q619.604,851.253 617.143,850.825 Q614.682,850.397 612.542,850.397 Q606.229,850.397 601.468,852.698 Q596.706,854.998 593.55,858.904 Q590.393,862.809 588.842,868.052 Q587.29,873.295 587.29,879.18 Q587.29,885.065 588.895,890.308 Q590.5,895.551 593.657,899.51 Q596.813,903.469 601.575,905.823 Q606.336,908.177 612.756,908.177 Q618.534,908.177 623.349,906.144 Q628.164,904.111 630.411,899.51 L630.625,899.51 L630.625,907 z M653.416,851.681 L653.416,907 L662.511,907 L662.511,882.39 Q662.511,877.04 663.581,872.92 Q664.651,868.801 667.005,865.912 Q669.359,863.023 673.211,861.525 Q677.063,860.027 682.52,860.027 L682.52,850.397 Q675.137,850.183 670.322,853.393 Q665.507,856.603 662.19,863.344 L661.976,863.344 L661.976,851.681 z M698.998,841.73 L698.998,830.602 L689.903,830.602 L689.903,841.73 z M689.903,851.681 L689.903,907 L698.998,907 L698.998,851.681 z M713.122,851.681 L713.122,907 L722.217,907 L722.217,875.756 Q722.217,872.011 723.234,868.854 Q724.25,865.698 726.283,863.344 Q728.316,860.99 731.366,859.706 Q734.415,858.422 738.588,858.422 Q743.831,858.422 746.827,861.418 Q749.823,864.414 749.823,869.55 L749.823,907 L758.918,907 L758.918,870.62 Q758.918,866.126 758.009,862.435 Q757.099,858.743 754.852,856.068 Q752.605,853.393 748.967,851.895 Q745.329,850.397 739.872,850.397 Q727.567,850.397 721.896,860.455 L721.682,860.455 L721.682,851.681 z M778.178,889.559 L769.083,889.559 Q769.297,894.695 771.223,898.279 Q773.149,901.864 776.359,904.057 Q779.569,906.251 783.742,907.214 Q787.915,908.177 792.516,908.177 Q796.689,908.177 800.916,907.375 Q805.142,906.572 808.513,904.539 Q811.883,902.506 813.97,899.189 Q816.056,895.872 816.056,890.843 Q816.056,886.884 814.505,884.209 Q812.953,881.534 810.439,879.768 Q807.924,878.003 804.661,876.933 Q801.397,875.863 797.973,875.114 Q794.763,874.365 791.553,873.669 Q788.343,872.974 785.775,871.958 Q783.207,870.941 781.549,869.39 Q779.89,867.838 779.89,865.484 Q779.89,863.344 780.96,862.006 Q782.03,860.669 783.742,859.867 Q785.454,859.064 787.541,858.743 Q789.627,858.422 791.66,858.422 Q793.907,858.422 796.101,858.904 Q798.294,859.385 800.113,860.455 Q801.932,861.525 803.109,863.291 Q804.286,865.056 804.5,867.731 L813.595,867.731 Q813.274,862.702 811.455,859.331 Q809.636,855.961 806.587,853.982 Q803.537,852.002 799.578,851.2 Q795.619,850.397 790.911,850.397 Q787.273,850.397 783.582,851.307 Q779.89,852.216 776.948,854.089 Q774.005,855.961 772.133,858.957 Q770.26,861.953 770.26,866.126 Q770.26,871.476 772.935,874.472 Q775.61,877.468 779.623,879.127 Q783.635,880.785 788.343,881.695 Q793.051,882.604 797.064,883.727 Q801.076,884.851 803.751,886.67 Q806.426,888.489 806.426,892.02 Q806.426,894.588 805.142,896.247 Q803.858,897.905 801.879,898.761 Q799.899,899.617 797.545,899.938 Q795.191,900.259 793.051,900.259 Q790.269,900.259 787.648,899.724 Q785.026,899.189 782.94,897.958 Q780.853,896.728 779.569,894.641 Q778.285,892.555 778.178,889.559 z M838.74,851.681 L838.74,835.096 L829.645,835.096 L829.645,851.681 L820.229,851.681 L820.229,859.706 L829.645,859.706 L829.645,894.909 Q829.645,898.761 830.394,901.115 Q831.143,903.469 832.695,904.753 Q834.246,906.037 836.761,906.518 Q839.275,907 842.806,907 L849.761,907 L849.761,898.975 L845.588,898.975 Q843.448,898.975 842.111,898.815 Q840.773,898.654 840.024,898.119 Q839.275,897.584 839.008,896.621 Q838.74,895.658 838.74,894.053 L838.74,859.706 L849.761,859.706 L849.761,851.681 z M898.232,874.044 L866.453,874.044 Q866.667,870.834 867.844,867.998 Q869.021,865.163 871.054,863.023 Q873.087,860.883 875.923,859.653 Q878.758,858.422 882.289,858.422 Q885.713,858.422 888.549,859.653 Q891.384,860.883 893.471,862.969 Q895.557,865.056 896.788,867.945 Q898.018,870.834 898.232,874.044 z M907.006,889.452 L898.018,889.452 Q896.841,894.909 893.15,897.584 Q889.458,900.259 883.68,900.259 Q879.186,900.259 875.869,898.761 Q872.552,897.263 870.412,894.748 Q868.272,892.234 867.309,888.971 Q866.346,885.707 866.453,882.069 L907.862,882.069 Q908.076,877.04 906.953,871.476 Q905.829,865.912 902.887,861.204 Q899.944,856.496 895.076,853.446 Q890.207,850.397 882.824,850.397 Q877.153,850.397 872.392,852.537 Q867.63,854.677 864.153,858.529 Q860.675,862.381 858.749,867.624 Q856.823,872.867 856.823,879.18 Q857.037,885.493 858.696,890.843 Q860.354,896.193 863.671,900.045 Q866.988,903.897 871.857,906.037 Q876.725,908.177 883.359,908.177 Q892.775,908.177 898.981,903.469 Q905.187,898.761 907.006,889.452 z M917.278,830.602 L917.278,907 L926.373,907 L926.373,875.756 Q926.373,872.011 927.39,868.854 Q928.406,865.698 930.439,863.344 Q932.472,860.99 935.522,859.706 Q938.571,858.422 942.744,858.422 Q947.987,858.422 950.983,861.418 Q953.979,864.414 953.979,869.55 L953.979,907 L963.074,907 L963.074,870.62 Q963.074,866.126 962.165,862.435 Q961.255,858.743 959.008,856.068 Q956.761,853.393 953.123,851.895 Q949.485,850.397 944.028,850.397 Q941.567,850.397 938.946,850.932 Q936.324,851.467 933.917,852.591 Q931.509,853.714 929.583,855.479 Q927.657,857.245 926.587,859.813 L926.373,859.813 L926.373,830.602 z M989.396,851.681 L989.396,835.096 L980.301,835.096 L980.301,851.681 L970.885,851.681 L970.885,859.706 L980.301,859.706 L980.301,894.909 Q980.301,898.761 981.05,901.115 Q981.799,903.469 983.351,904.753 Q984.902,906.037 987.417,906.518 Q989.931,907 993.462,907 L1000.417,907 L1000.417,898.975 L996.244,898.975 Q994.104,898.975 992.767,898.815 Q991.429,898.654 990.68,898.119 Q989.931,897.584 989.664,896.621 Q989.396,895.658 989.396,894.053 L989.396,859.706 L1000.417,859.706 L1000.417,851.681 z M1012.508,895.123 L1012.508,907 L1018.821,907 Q1018.928,908.284 1018.661,909.782 Q1018.393,911.28 1017.644,912.724 Q1016.895,914.169 1015.665,915.399 Q1014.434,916.63 1012.615,917.272 L1012.615,922.622 Q1018.821,920.803 1021.603,916.416 Q1024.385,912.029 1024.385,905.93 L1024.385,895.123 z M227.128,1035 L244.783,979.681 L235.367,979.681 L222.955,1024.942 L222.741,1024.942 L211.185,979.681 L201.234,979.681 L190.106,1024.942 L189.892,1024.942 L177.373,979.681 L167.315,979.681 L185.077,1035 L194.921,1035 L206.049,991.023 L206.263,991.023 L217.498,1035 z M302.456,1034.786 L302.456,1027.724 Q300.851,1028.259 299.674,1028.259 Q297.534,1028.259 297.16,1026.761 Q296.785,1025.263 296.785,1022.053 L296.785,993.591 Q296.785,988.776 294.966,985.78 Q293.147,982.784 290.151,981.125 Q287.155,979.467 283.464,978.932 Q279.772,978.397 276.027,978.397 Q271.426,978.397 267.253,979.36 Q263.08,980.323 259.87,982.516 Q256.66,984.71 254.734,988.241 Q252.808,991.772 252.594,996.908 L261.689,996.908 Q262.01,990.809 265.862,988.615 Q269.714,986.422 275.492,986.422 Q277.632,986.422 279.826,986.743 Q282.019,987.064 283.785,988.027 Q285.55,988.99 286.674,990.809 Q287.797,992.628 287.797,995.624 Q287.797,998.192 286.299,999.529 Q284.801,1000.867 282.233,1001.562 Q279.665,1002.258 276.295,1002.633 Q272.924,1003.007 269.179,1003.756 Q265.648,1004.398 262.278,1005.361 Q258.907,1006.324 256.286,1008.196 Q253.664,1010.069 252.059,1013.065 Q250.454,1016.061 250.454,1020.769 Q250.454,1024.942 251.899,1027.885 Q253.343,1030.827 255.858,1032.699 Q258.372,1034.572 261.689,1035.375 Q265.006,1036.177 268.751,1036.177 Q274.529,1036.177 279.505,1034.198 Q284.48,1032.218 288.225,1027.724 Q288.225,1032.218 290.312,1034.198 Q292.398,1036.177 295.929,1036.177 Q300.102,1036.177 302.456,1034.786 z M287.69,1006.431 L287.69,1015.74 Q287.69,1017.666 286.727,1019.859 Q285.764,1022.053 283.731,1023.925 Q281.698,1025.798 278.488,1027.028 Q275.278,1028.259 270.784,1028.259 Q268.751,1028.259 266.772,1027.831 Q264.792,1027.403 263.348,1026.44 Q261.903,1025.477 260.994,1023.925 Q260.084,1022.374 260.084,1020.127 Q260.084,1016.703 261.636,1014.724 Q263.187,1012.744 265.648,1011.674 Q268.109,1010.604 271.212,1010.122 Q274.315,1009.641 277.365,1009.266 Q280.414,1008.892 283.196,1008.304 Q285.978,1007.715 287.69,1006.431 z M316.473,1017.559 L307.378,1017.559 Q307.592,1022.695 309.518,1026.28 Q311.444,1029.864 314.654,1032.057 Q317.864,1034.251 322.037,1035.214 Q326.21,1036.177 330.811,1036.177 Q334.984,1036.177 339.211,1035.375 Q343.437,1034.572 346.808,1032.539 Q350.178,1030.506 352.265,1027.189 Q354.351,1023.872 354.351,1018.843 Q354.351,1014.884 352.8,1012.209 Q351.248,1009.534 348.734,1007.768 Q346.219,1006.003 342.956,1004.933 Q339.692,1003.863 336.268,1003.114 Q333.058,1002.365 329.848,1001.669 Q326.638,1000.974 324.07,999.958 Q321.502,998.941 319.844,997.39 Q318.185,995.838 318.185,993.484 Q318.185,991.344 319.255,990.006 Q320.325,988.669 322.037,987.867 Q323.749,987.064 325.836,986.743 Q327.922,986.422 329.955,986.422 Q332.202,986.422 334.396,986.904 Q336.589,987.385 338.408,988.455 Q340.227,989.525 341.404,991.291 Q342.581,993.056 342.795,995.731 L351.89,995.731 Q351.569,990.702 349.75,987.331 Q347.931,983.961 344.882,981.982 Q341.832,980.002 337.873,979.2 Q333.914,978.397 329.206,978.397 Q325.568,978.397 321.877,979.307 Q318.185,980.216 315.243,982.089 Q312.3,983.961 310.428,986.957 Q308.555,989.953 308.555,994.126 Q308.555,999.476 311.23,1002.472 Q313.905,1005.468 317.918,1007.127 Q321.93,1008.785 326.638,1009.695 Q331.346,1010.604 335.359,1011.727 Q339.371,1012.851 342.046,1014.67 Q344.721,1016.489 344.721,1020.02 Q344.721,1022.588 343.437,1024.246 Q342.153,1025.905 340.174,1026.761 Q338.194,1027.617 335.84,1027.938 Q333.486,1028.259 331.346,1028.259 Q328.564,1028.259 325.943,1027.724 Q323.321,1027.189 321.235,1025.958 Q319.148,1024.728 317.864,1022.641 Q316.58,1020.555 316.473,1017.559 z M394.155,979.681 L394.155,1035 L403.25,1035 L403.25,1000.546 Q403.25,998.941 404.053,996.534 Q404.855,994.126 406.621,991.879 Q408.386,989.632 411.222,988.027 Q414.057,986.422 418.016,986.422 Q421.119,986.422 423.099,987.331 Q425.078,988.241 426.255,989.899 Q427.432,991.558 427.914,993.805 Q428.395,996.052 428.395,998.727 L428.395,1035 L437.49,1035 L437.49,1000.546 Q437.49,994.126 441.342,990.274 Q445.194,986.422 451.935,986.422 Q455.252,986.422 457.339,987.385 Q459.425,988.348 460.602,990.006 Q461.779,991.665 462.207,993.912 Q462.635,996.159 462.635,998.727 L462.635,1035 L471.73,1035 L471.73,994.447 Q471.73,990.167 470.393,987.117 Q469.055,984.068 466.648,982.142 Q464.24,980.216 460.87,979.307 Q457.499,978.397 453.326,978.397 Q447.869,978.397 443.322,980.858 Q438.774,983.319 435.992,987.813 Q434.28,982.677 430.107,980.537 Q425.934,978.397 420.798,978.397 Q409.135,978.397 402.929,987.813 L402.715,987.813 L402.715,979.681 z M534.432,1034.786 L534.432,1027.724 Q532.827,1028.259 531.65,1028.259 Q529.51,1028.259 529.136,1026.761 Q528.761,1025.263 528.761,1022.053 L528.761,993.591 Q528.761,988.776 526.942,985.78 Q525.123,982.784 522.127,981.125 Q519.131,979.467 515.44,978.932 Q511.748,978.397 508.003,978.397 Q503.402,978.397 499.229,979.36 Q495.056,980.323 491.846,982.516 Q488.636,984.71 486.71,988.241 Q484.784,991.772 484.57,996.908 L493.665,996.908 Q493.986,990.809 497.838,988.615 Q501.69,986.422 507.468,986.422 Q509.608,986.422 511.802,986.743 Q513.995,987.064 515.761,988.027 Q517.526,988.99 518.65,990.809 Q519.773,992.628 519.773,995.624 Q519.773,998.192 518.275,999.529 Q516.777,1000.867 514.209,1001.562 Q511.641,1002.258 508.271,1002.633 Q504.9,1003.007 501.155,1003.756 Q497.624,1004.398 494.254,1005.361 Q490.883,1006.324 488.262,1008.196 Q485.64,1010.069 484.035,1013.065 Q482.43,1016.061 482.43,1020.769 Q482.43,1024.942 483.875,1027.885 Q485.319,1030.827 487.834,1032.699 Q490.348,1034.572 493.665,1035.375 Q496.982,1036.177 500.727,1036.177 Q506.505,1036.177 511.481,1034.198 Q516.456,1032.218 520.201,1027.724 Q520.201,1032.218 522.288,1034.198 Q524.374,1036.177 527.905,1036.177 Q532.078,1036.177 534.432,1034.786 z M519.666,1006.431 L519.666,1015.74 Q519.666,1017.666 518.703,1019.859 Q517.74,1022.053 515.707,1023.925 Q513.674,1025.798 510.464,1027.028 Q507.254,1028.259 502.76,1028.259 Q500.727,1028.259 498.748,1027.831 Q496.768,1027.403 495.324,1026.44 Q493.879,1025.477 492.97,1023.925 Q492.06,1022.374 492.06,1020.127 Q492.06,1016.703 493.612,1014.724 Q495.163,1012.744 497.624,1011.674 Q500.085,1010.604 503.188,1010.122 Q506.291,1009.641 509.341,1009.266 Q512.39,1008.892 515.172,1008.304 Q517.954,1007.715 519.666,1006.431 z M542.885,979.681 L542.885,1035 L551.98,1035 L551.98,1003.756 Q551.98,1000.011 552.997,996.854 Q554.013,993.698 556.046,991.344 Q558.079,988.99 561.129,987.706 Q564.178,986.422 568.351,986.422 Q573.594,986.422 576.59,989.418 Q579.586,992.414 579.586,997.55 L579.586,1035 L588.681,1035 L588.681,998.62 Q588.681,994.126 587.772,990.435 Q586.862,986.743 584.615,984.068 Q582.368,981.393 578.73,979.895 Q575.092,978.397 569.635,978.397 Q557.33,978.397 551.659,988.455 L551.445,988.455 L551.445,979.681 z M632.123,979.681 L632.123,1035 L641.218,1035 L641.218,1003.756 Q641.218,1000.011 642.235,996.854 Q643.251,993.698 645.284,991.344 Q647.317,988.99 650.367,987.706 Q653.416,986.422 657.589,986.422 Q662.832,986.422 665.828,989.418 Q668.824,992.414 668.824,997.55 L668.824,1035 L677.919,1035 L677.919,998.62 Q677.919,994.126 677.01,990.435 Q676.1,986.743 673.853,984.068 Q671.606,981.393 667.968,979.895 Q664.33,978.397 658.873,978.397 Q646.568,978.397 640.897,988.455 L640.683,988.455 L640.683,979.681 z M698.249,1007.394 Q698.249,1002.365 699.587,998.459 Q700.924,994.554 703.278,991.879 Q705.632,989.204 708.789,987.813 Q711.945,986.422 715.476,986.422 Q719.007,986.422 722.164,987.813 Q725.32,989.204 727.674,991.879 Q730.028,994.554 731.366,998.459 Q732.703,1002.365 732.703,1007.394 Q732.703,1012.423 731.366,1016.328 Q730.028,1020.234 727.674,1022.856 Q725.32,1025.477 722.164,1026.868 Q719.007,1028.259 715.476,1028.259 Q711.945,1028.259 708.789,1026.868 Q705.632,1025.477 703.278,1022.856 Q700.924,1020.234 699.587,1016.328 Q698.249,1012.423 698.249,1007.394 z M688.619,1007.394 Q688.619,1013.493 690.331,1018.736 Q692.043,1023.979 695.467,1027.885 Q698.891,1031.79 703.92,1033.984 Q708.949,1036.177 715.476,1036.177 Q722.11,1036.177 727.086,1033.984 Q732.061,1031.79 735.485,1027.885 Q738.909,1023.979 740.621,1018.736 Q742.333,1013.493 742.333,1007.394 Q742.333,1001.295 740.621,995.998 Q738.909,990.702 735.485,986.797 Q732.061,982.891 727.086,980.644 Q722.11,978.397 715.476,978.397 Q708.949,978.397 703.92,980.644 Q698.891,982.891 695.467,986.797 Q692.043,990.702 690.331,995.998 Q688.619,1001.295 688.619,1007.394 z M790.59,997.443 L800.006,997.443 Q799.471,992.521 797.438,988.937 Q795.405,985.352 792.249,982.998 Q789.092,980.644 784.973,979.521 Q780.853,978.397 776.145,978.397 Q769.618,978.397 764.696,980.698 Q759.774,982.998 756.511,987.01 Q753.247,991.023 751.642,996.427 Q750.037,1001.83 750.037,1008.036 Q750.037,1014.242 751.696,1019.432 Q753.354,1024.621 756.618,1028.366 Q759.881,1032.111 764.75,1034.144 Q769.618,1036.177 775.931,1036.177 Q786.524,1036.177 792.677,1030.613 Q798.829,1025.049 800.327,1014.777 L791.018,1014.777 Q790.162,1021.197 786.364,1024.728 Q782.565,1028.259 775.824,1028.259 Q771.544,1028.259 768.441,1026.547 Q765.338,1024.835 763.412,1022 Q761.486,1019.164 760.577,1015.526 Q759.667,1011.888 759.667,1008.036 Q759.667,1003.863 760.523,999.958 Q761.379,996.052 763.359,993.056 Q765.338,990.06 768.655,988.241 Q771.972,986.422 776.894,986.422 Q782.672,986.422 786.096,989.311 Q789.52,992.2 790.59,997.443 z M810.492,958.602 L810.492,1035 L819.587,1035 L819.587,1003.756 Q819.587,1000.011 820.604,996.854 Q821.62,993.698 823.653,991.344 Q825.686,988.99 828.736,987.706 Q831.785,986.422 835.958,986.422 Q841.201,986.422 844.197,989.418 Q847.193,992.414 847.193,997.55 L847.193,1035 L856.288,1035 L856.288,998.62 Q856.288,994.126 855.379,990.435 Q854.469,986.743 852.222,984.068 Q849.975,981.393 846.337,979.895 Q842.699,978.397 837.242,978.397 Q834.781,978.397 832.16,978.932 Q829.538,979.467 827.131,980.591 Q824.723,981.714 822.797,983.479 Q820.871,985.245 819.801,987.813 L819.587,987.813 L819.587,958.602 z M899.73,979.681 L899.73,1035 L908.825,1035 L908.825,1003.756 Q908.825,1000.011 909.842,996.854 Q910.858,993.698 912.891,991.344 Q914.924,988.99 917.974,987.706 Q921.023,986.422 925.196,986.422 Q930.439,986.422 933.435,989.418 Q936.431,992.414 936.431,997.55 L936.431,1035 L945.526,1035 L945.526,998.62 Q945.526,994.126 944.617,990.435 Q943.707,986.743 941.46,984.068 Q939.213,981.393 935.575,979.895 Q931.937,978.397 926.48,978.397 Q914.175,978.397 908.504,988.455 L908.29,988.455 L908.29,979.681 z M968.852,969.73 L968.852,958.602 L959.757,958.602 L959.757,969.73 z M959.757,979.681 L959.757,1035 L968.852,1035 L968.852,979.681 z M1021.389,1002.044 L989.61,1002.044 Q989.824,998.834 991.001,995.998 Q992.178,993.163 994.211,991.023 Q996.244,988.883 999.08,987.653 Q1001.915,986.422 1005.446,986.422 Q1008.87,986.422 1011.706,987.653 Q1014.541,988.883 1016.628,990.969 Q1018.714,993.056 1019.945,995.945 Q1021.175,998.834 1021.389,1002.044 z M1030.163,1017.452 L1021.175,1017.452 Q1019.998,1022.909 1016.307,1025.584 Q1012.615,1028.259 1006.837,1028.259 Q1002.343,1028.259 999.026,1026.761 Q995.709,1025.263 993.569,1022.748 Q991.429,1020.234 990.466,1016.971 Q989.503,1013.707 989.61,1010.069 L1031.019,1010.069 Q1031.233,1005.04 1030.11,999.476 Q1028.986,993.912 1026.044,989.204 Q1023.101,984.496 1018.233,981.446 Q1013.364,978.397 1005.981,978.397 Q1000.31,978.397 995.549,980.537 Q990.787,982.677 987.31,986.529 Q983.832,990.381 981.906,995.624 Q979.98,1000.867 979.98,1007.18 Q980.194,1013.493 981.853,1018.843 Q983.511,1024.193 986.828,1028.045 Q990.145,1031.897 995.014,1034.037 Q999.882,1036.177 1006.516,1036.177 Q1015.932,1036.177 1022.138,1031.469 Q1028.344,1026.761 1030.163,1017.452 z M227.128,1163 L244.783,1107.681 L235.367,1107.681 L222.955,1152.942 L222.741,1152.942 L211.185,1107.681 L201.234,1107.681 L190.106,1152.942 L189.892,1152.942 L177.373,1107.681 L167.315,1107.681 L185.077,1163 L194.921,1163 L206.049,1119.023 L206.263,1119.023 L217.498,1163 z M263.08,1097.73 L263.08,1086.602 L253.985,1086.602 L253.985,1097.73 z M253.985,1107.681 L253.985,1163 L263.08,1163 L263.08,1107.681 z M282.768,1145.559 L273.673,1145.559 Q273.887,1150.695 275.813,1154.28 Q277.739,1157.864 280.949,1160.057 Q284.159,1162.251 288.332,1163.214 Q292.505,1164.177 297.106,1164.177 Q301.279,1164.177 305.506,1163.375 Q309.732,1162.572 313.103,1160.539 Q316.473,1158.506 318.56,1155.189 Q320.646,1151.872 320.646,1146.843 Q320.646,1142.884 319.095,1140.209 Q317.543,1137.534 315.029,1135.769 Q312.514,1134.003 309.251,1132.933 Q305.987,1131.863 302.563,1131.114 Q299.353,1130.365 296.143,1129.67 Q292.933,1128.974 290.365,1127.958 Q287.797,1126.941 286.139,1125.39 Q284.48,1123.838 284.48,1121.484 Q284.48,1119.344 285.55,1118.006 Q286.62,1116.669 288.332,1115.866 Q290.044,1115.064 292.131,1114.743 Q294.217,1114.422 296.25,1114.422 Q298.497,1114.422 300.691,1114.903 Q302.884,1115.385 304.703,1116.455 Q306.522,1117.525 307.699,1119.291 Q308.876,1121.056 309.09,1123.731 L318.185,1123.731 Q317.864,1118.702 316.045,1115.332 Q314.226,1111.961 311.177,1109.981 Q308.127,1108.002 304.168,1107.199 Q300.209,1106.397 295.501,1106.397 Q291.863,1106.397 288.172,1107.307 Q284.48,1108.216 281.538,1110.089 Q278.595,1111.961 276.723,1114.957 Q274.85,1117.953 274.85,1122.126 Q274.85,1127.476 277.525,1130.472 Q280.2,1133.468 284.213,1135.126 Q288.225,1136.785 292.933,1137.694 Q297.641,1138.604 301.654,1139.728 Q305.666,1140.851 308.341,1142.67 Q311.016,1144.489 311.016,1148.02 Q311.016,1150.588 309.732,1152.246 Q308.448,1153.905 306.469,1154.761 Q304.489,1155.617 302.135,1155.938 Q299.781,1156.259 297.641,1156.259 Q294.859,1156.259 292.238,1155.724 Q289.616,1155.189 287.53,1153.958 Q285.443,1152.728 284.159,1150.641 Q282.875,1148.555 282.768,1145.559 z M336.268,1145.559 L327.173,1145.559 Q327.387,1150.695 329.313,1154.28 Q331.239,1157.864 334.449,1160.057 Q337.659,1162.251 341.832,1163.214 Q346.005,1164.177 350.606,1164.177 Q354.779,1164.177 359.006,1163.375 Q363.232,1162.572 366.603,1160.539 Q369.973,1158.506 372.06,1155.189 Q374.146,1151.872 374.146,1146.843 Q374.146,1142.884 372.595,1140.209 Q371.043,1137.534 368.529,1135.769 Q366.014,1134.003 362.751,1132.933 Q359.487,1131.863 356.063,1131.114 Q352.853,1130.365 349.643,1129.67 Q346.433,1128.974 343.865,1127.958 Q341.297,1126.941 339.639,1125.39 Q337.98,1123.838 337.98,1121.484 Q337.98,1119.344 339.05,1118.006 Q340.12,1116.669 341.832,1115.866 Q343.544,1115.064 345.631,1114.743 Q347.717,1114.422 349.75,1114.422 Q351.997,1114.422 354.191,1114.903 Q356.384,1115.385 358.203,1116.455 Q360.022,1117.525 361.199,1119.291 Q362.376,1121.056 362.59,1123.731 L371.685,1123.731 Q371.364,1118.702 369.545,1115.332 Q367.726,1111.961 364.677,1109.981 Q361.627,1108.002 357.668,1107.199 Q353.709,1106.397 349.001,1106.397 Q345.363,1106.397 341.672,1107.307 Q337.98,1108.216 335.038,1110.089 Q332.095,1111.961 330.223,1114.957 Q328.35,1117.953 328.35,1122.126 Q328.35,1127.476 331.025,1130.472 Q333.7,1133.468 337.713,1135.126 Q341.725,1136.785 346.433,1137.694 Q351.141,1138.604 355.154,1139.728 Q359.166,1140.851 361.841,1142.67 Q364.516,1144.489 364.516,1148.02 Q364.516,1150.588 363.232,1152.246 Q361.948,1153.905 359.969,1154.761 Q357.989,1155.617 355.635,1155.938 Q353.281,1156.259 351.141,1156.259 Q348.359,1156.259 345.738,1155.724 Q343.116,1155.189 341.03,1153.958 Q338.943,1152.728 337.659,1150.641 Q336.375,1148.555 336.268,1145.559 z M422.617,1130.044 L390.838,1130.044 Q391.052,1126.834 392.229,1123.999 Q393.406,1121.163 395.439,1119.023 Q397.472,1116.883 400.308,1115.652 Q403.143,1114.422 406.674,1114.422 Q410.098,1114.422 412.934,1115.652 Q415.769,1116.883 417.856,1118.969 Q419.942,1121.056 421.173,1123.945 Q422.403,1126.834 422.617,1130.044 z M431.391,1145.452 L422.403,1145.452 Q421.226,1150.909 417.535,1153.584 Q413.843,1156.259 408.065,1156.259 Q403.571,1156.259 400.254,1154.761 Q396.937,1153.263 394.797,1150.749 Q392.657,1148.234 391.694,1144.97 Q390.731,1141.707 390.838,1138.069 L432.247,1138.069 Q432.461,1133.04 431.338,1127.476 Q430.214,1121.912 427.272,1117.204 Q424.329,1112.496 419.461,1109.447 Q414.592,1106.397 407.209,1106.397 Q401.538,1106.397 396.777,1108.537 Q392.015,1110.677 388.538,1114.529 Q385.06,1118.381 383.134,1123.624 Q381.208,1128.867 381.208,1135.18 Q381.422,1141.493 383.081,1146.843 Q384.739,1152.193 388.056,1156.045 Q391.373,1159.897 396.242,1162.037 Q401.11,1164.177 407.744,1164.177 Q417.16,1164.177 423.366,1159.469 Q429.572,1154.761 431.391,1145.452 z M441.663,1107.681 L441.663,1163 L450.758,1163 L450.758,1131.756 Q450.758,1128.011 451.775,1124.854 Q452.791,1121.698 454.824,1119.344 Q456.857,1116.99 459.907,1115.706 Q462.956,1114.422 467.129,1114.422 Q472.372,1114.422 475.368,1117.418 Q478.364,1120.414 478.364,1125.55 L478.364,1163 L487.459,1163 L487.459,1126.62 Q487.459,1122.126 486.55,1118.434 Q485.64,1114.743 483.393,1112.068 Q481.146,1109.393 477.508,1107.895 Q473.87,1106.397 468.413,1106.397 Q456.108,1106.397 450.437,1116.455 L450.223,1116.455 L450.223,1107.681 z M585.685,1163 L603.34,1107.681 L593.924,1107.681 L581.512,1152.942 L581.298,1152.942 L569.742,1107.681 L559.791,1107.681 L548.663,1152.942 L548.449,1152.942 L535.93,1107.681 L525.872,1107.681 L543.634,1163 L553.478,1163 L564.606,1119.023 L564.82,1119.023 L576.055,1163 z M618.641,1135.394 Q618.641,1130.365 619.979,1126.459 Q621.316,1122.554 623.67,1119.879 Q626.024,1117.204 629.181,1115.813 Q632.337,1114.422 635.868,1114.422 Q639.399,1114.422 642.556,1115.813 Q645.712,1117.204 648.066,1119.879 Q650.42,1122.554 651.758,1126.459 Q653.095,1130.365 653.095,1135.394 Q653.095,1140.423 651.758,1144.328 Q650.42,1148.234 648.066,1150.855 Q645.712,1153.477 642.556,1154.868 Q639.399,1156.259 635.868,1156.259 Q632.337,1156.259 629.181,1154.868 Q626.024,1153.477 623.67,1150.855 Q621.316,1148.234 619.979,1144.328 Q618.641,1140.423 618.641,1135.394 z M609.011,1135.394 Q609.011,1141.493 610.723,1146.736 Q612.435,1151.979 615.859,1155.885 Q619.283,1159.79 624.312,1161.984 Q629.341,1164.177 635.868,1164.177 Q642.502,1164.177 647.478,1161.984 Q652.453,1159.79 655.877,1155.885 Q659.301,1151.979 661.013,1146.736 Q662.725,1141.493 662.725,1135.394 Q662.725,1129.295 661.013,1123.999 Q659.301,1118.702 655.877,1114.797 Q652.453,1110.891 647.478,1108.644 Q642.502,1106.397 635.868,1106.397 Q629.341,1106.397 624.312,1108.644 Q619.283,1110.891 615.859,1114.797 Q612.435,1118.702 610.723,1123.999 Q609.011,1129.295 609.011,1135.394 z M673.96,1086.602 L673.96,1163 L683.055,1163 L683.055,1086.602 z M697.714,1086.602 L697.714,1163 L706.809,1163 L706.809,1086.602 z M733.559,1107.681 L733.559,1091.096 L724.464,1091.096 L724.464,1107.681 L715.048,1107.681 L715.048,1115.706 L724.464,1115.706 L724.464,1150.909 Q724.464,1154.761 725.213,1157.115 Q725.962,1159.469 727.514,1160.753 Q729.065,1162.037 731.58,1162.519 Q734.094,1163 737.625,1163 L744.58,1163 L744.58,1154.975 L740.407,1154.975 Q738.267,1154.975 736.93,1154.814 Q735.592,1154.654 734.843,1154.119 Q734.094,1153.584 733.827,1152.621 Q733.559,1151.658 733.559,1150.053 L733.559,1115.706 L744.58,1115.706 L744.58,1107.681 z M793.051,1130.044 L761.272,1130.044 Q761.486,1126.834 762.663,1123.999 Q763.84,1121.163 765.873,1119.023 Q767.906,1116.883 770.742,1115.652 Q773.577,1114.422 777.108,1114.422 Q780.532,1114.422 783.368,1115.652 Q786.203,1116.883 788.29,1118.969 Q790.376,1121.056 791.607,1123.945 Q792.837,1126.834 793.051,1130.044 z M801.825,1145.452 L792.837,1145.452 Q791.66,1150.909 787.969,1153.584 Q784.277,1156.259 778.499,1156.259 Q774.005,1156.259 770.688,1154.761 Q767.371,1153.263 765.231,1150.749 Q763.091,1148.234 762.128,1144.97 Q761.165,1141.707 761.272,1138.069 L802.681,1138.069 Q802.895,1133.04 801.772,1127.476 Q800.648,1121.912 797.706,1117.204 Q794.763,1112.496 789.895,1109.447 Q785.026,1106.397 777.643,1106.397 Q771.972,1106.397 767.211,1108.537 Q762.449,1110.677 758.972,1114.529 Q755.494,1118.381 753.568,1123.624 Q751.642,1128.867 751.642,1135.18 Q751.856,1141.493 753.515,1146.843 Q755.173,1152.193 758.49,1156.045 Q761.807,1159.897 766.676,1162.037 Q771.544,1164.177 778.178,1164.177 Q787.594,1164.177 793.8,1159.469 Q800.006,1154.761 801.825,1145.452 z" fill="#000000"/>
    <path d="M216.054,582.755 L232.074,582.755 Q231.718,572.253 228.069,564.688 Q224.42,557.123 218.101,552.139 Q211.782,547.155 203.416,544.841 Q195.05,542.527 185.26,542.527 Q176.538,542.527 168.261,544.752 Q159.984,546.977 153.487,551.516 Q146.99,556.055 143.074,563.086 Q139.158,570.117 139.158,579.729 Q139.158,588.451 142.629,594.236 Q146.1,600.021 151.885,603.67 Q157.67,607.319 164.968,609.544 Q172.266,611.769 179.831,613.46 Q187.396,615.151 194.694,616.753 Q201.992,618.355 207.777,620.936 Q213.562,623.517 217.033,627.611 Q220.504,631.705 220.504,638.291 Q220.504,645.233 217.656,649.683 Q214.808,654.133 210.18,656.714 Q205.552,659.295 199.767,660.363 Q193.982,661.431 188.286,661.431 Q181.166,661.431 174.402,659.651 Q167.638,657.871 162.565,654.133 Q157.492,650.395 154.377,644.61 Q151.262,638.825 151.262,630.815 L135.242,630.815 Q135.242,642.385 139.425,650.84 Q143.608,659.295 150.817,664.724 Q158.026,670.153 167.549,672.823 Q177.072,675.493 187.752,675.493 Q196.474,675.493 205.285,673.446 Q214.096,671.399 221.216,666.86 Q228.336,662.321 232.875,655.112 Q237.414,647.903 237.414,637.757 Q237.414,628.323 233.943,622.093 Q230.472,615.863 224.687,611.769 Q218.902,607.675 211.604,605.272 Q204.306,602.869 196.741,601.089 Q189.176,599.309 181.878,597.796 Q174.58,596.283 168.795,593.969 Q163.01,591.655 159.539,588.006 Q156.068,584.357 156.068,578.483 Q156.068,572.253 158.471,568.07 Q160.874,563.887 164.879,561.395 Q168.884,558.903 174.046,557.835 Q179.208,556.767 184.548,556.767 Q197.72,556.767 206.175,562.908 Q214.63,569.049 216.054,582.755 z M255.392,545.553 L255.392,672.645 L270.522,672.645 L270.522,620.669 Q270.522,614.439 272.213,609.188 Q273.904,603.937 277.286,600.021 Q280.668,596.105 285.741,593.969 Q290.814,591.833 297.756,591.833 Q306.478,591.833 311.462,596.817 Q316.446,601.801 316.446,610.345 L316.446,672.645 L331.576,672.645 L331.576,612.125 Q331.576,604.649 330.063,598.508 Q328.55,592.367 324.812,587.917 Q321.074,583.467 315.022,580.975 Q308.97,578.483 299.892,578.483 Q295.798,578.483 291.437,579.373 Q287.076,580.263 283.071,582.132 Q279.066,584.001 275.862,586.938 Q272.658,589.875 270.878,594.147 L270.522,594.147 L270.522,545.553 z M365.396,626.721 Q365.396,618.355 367.621,611.858 Q369.846,605.361 373.762,600.911 Q377.678,596.461 382.929,594.147 Q388.18,591.833 394.054,591.833 Q399.928,591.833 405.179,594.147 Q410.43,596.461 414.346,600.911 Q418.262,605.361 420.487,611.858 Q422.712,618.355 422.712,626.721 Q422.712,635.087 420.487,641.584 Q418.262,648.081 414.346,652.442 Q410.43,656.803 405.179,659.117 Q399.928,661.431 394.054,661.431 Q388.18,661.431 382.929,659.117 Q377.678,656.803 373.762,652.442 Q369.846,648.081 367.621,641.584 Q365.396,635.087 365.396,626.721 z M349.376,626.721 Q349.376,636.867 352.224,645.589 Q355.072,654.311 360.768,660.808 Q366.464,667.305 374.83,670.954 Q383.196,674.603 394.054,674.603 Q405.09,674.603 413.367,670.954 Q421.644,667.305 427.34,660.808 Q433.036,654.311 435.884,645.589 Q438.732,636.867 438.732,626.721 Q438.732,616.575 435.884,607.764 Q433.036,598.953 427.34,592.456 Q421.644,585.959 413.367,582.221 Q405.09,578.483 394.054,578.483 Q383.196,578.483 374.83,582.221 Q366.464,585.959 360.768,592.456 Q355.072,598.953 352.224,607.764 Q349.376,616.575 349.376,626.721 z M547.668,672.645 L577.038,580.619 L561.374,580.619 L540.726,655.913 L540.37,655.913 L521.146,580.619 L504.592,580.619 L486.08,655.913 L485.724,655.913 L464.898,580.619 L448.166,580.619 L477.714,672.645 L494.09,672.645 L512.602,599.487 L512.958,599.487 L531.648,672.645 z M591.456,580.619 L591.456,672.645 L606.586,672.645 L606.586,620.669 Q606.586,614.439 608.277,609.188 Q609.968,603.937 613.35,600.021 Q616.732,596.105 621.805,593.969 Q626.878,591.833 633.82,591.833 Q642.542,591.833 647.526,596.817 Q652.51,601.801 652.51,610.345 L652.51,672.645 L667.64,672.645 L667.64,612.125 Q667.64,604.649 666.127,598.508 Q664.614,592.367 660.876,587.917 Q657.138,583.467 651.086,580.975 Q645.034,578.483 635.956,578.483 Q615.486,578.483 606.052,595.215 L605.696,595.215 L605.696,580.619 z M701.46,626.721 Q701.46,618.355 703.685,611.858 Q705.91,605.361 709.826,600.911 Q713.742,596.461 718.993,594.147 Q724.244,591.833 730.118,591.833 Q735.992,591.833 741.243,594.147 Q746.494,596.461 750.41,600.911 Q754.326,605.361 756.551,611.858 Q758.776,618.355 758.776,626.721 Q758.776,635.087 756.551,641.584 Q754.326,648.081 750.41,652.442 Q746.494,656.803 741.243,659.117 Q735.992,661.431 730.118,661.431 Q724.244,661.431 718.993,659.117 Q713.742,656.803 709.826,652.442 Q705.91,648.081 703.685,641.584 Q701.46,635.087 701.46,626.721 z M685.44,626.721 Q685.44,636.867 688.288,645.589 Q691.136,654.311 696.832,660.808 Q702.528,667.305 710.894,670.954 Q719.26,674.603 730.118,674.603 Q741.154,674.603 749.431,670.954 Q757.708,667.305 763.404,660.808 Q769.1,654.311 771.948,645.589 Q774.796,636.867 774.796,626.721 Q774.796,616.575 771.948,607.764 Q769.1,598.953 763.404,592.456 Q757.708,585.959 749.431,582.221 Q741.154,578.483 730.118,578.483 Q719.26,578.483 710.894,582.221 Q702.528,585.959 696.832,592.456 Q691.136,598.953 688.288,607.764 Q685.44,616.575 685.44,626.721 z M813.6,580.619 L813.6,553.029 L798.47,553.029 L798.47,580.619 L782.806,580.619 L782.806,593.969 L798.47,593.969 L798.47,652.531 Q798.47,658.939 799.716,662.855 Q800.962,666.771 803.543,668.907 Q806.124,671.043 810.307,671.844 Q814.49,672.645 820.364,672.645 L831.934,672.645 L831.934,659.295 L824.992,659.295 Q821.432,659.295 819.207,659.028 Q816.982,658.761 815.736,657.871 Q814.49,656.981 814.045,655.379 Q813.6,653.777 813.6,651.107 L813.6,593.969 L831.934,593.969 L831.934,580.619 z M852.048,652.887 L852.048,672.645 L871.806,672.645 L871.806,652.887 z M962.052,617.821 L909.186,617.821 Q909.542,612.481 911.5,607.764 Q913.458,603.047 916.84,599.487 Q920.222,595.927 924.939,593.88 Q929.656,591.833 935.53,591.833 Q941.226,591.833 945.943,593.88 Q950.66,595.927 954.131,599.398 Q957.602,602.869 959.649,607.675 Q961.696,612.481 962.052,617.821 z M976.648,643.453 L961.696,643.453 Q959.738,652.531 953.597,656.981 Q947.456,661.431 937.844,661.431 Q930.368,661.431 924.85,658.939 Q919.332,656.447 915.772,652.264 Q912.212,648.081 910.61,642.652 Q909.008,637.223 909.186,631.171 L978.072,631.171 Q978.428,622.805 976.559,613.549 Q974.69,604.293 969.795,596.461 Q964.9,588.629 956.801,583.556 Q948.702,578.483 936.42,578.483 Q926.986,578.483 919.065,582.043 Q911.144,585.603 905.359,592.011 Q899.574,598.419 896.37,607.141 Q893.166,615.863 893.166,626.365 Q893.522,636.867 896.281,645.767 Q899.04,654.667 904.558,661.075 Q910.076,667.483 918.175,671.043 Q926.274,674.603 937.31,674.603 Q952.974,674.603 963.298,666.771 Q973.622,658.939 976.648,643.453 z M1002.992,643.631 L987.862,643.631 Q988.218,652.175 991.422,658.138 Q994.626,664.101 999.966,667.75 Q1005.306,671.399 1012.248,673.001 Q1019.19,674.603 1026.844,674.603 Q1033.786,674.603 1040.817,673.268 Q1047.848,671.933 1053.455,668.551 Q1059.062,665.169 1062.533,659.651 Q1066.004,654.133 1066.004,645.767 Q1066.004,639.181 1063.423,634.731 Q1060.842,630.281 1056.659,627.344 Q1052.476,624.407 1047.047,622.627 Q1041.618,620.847 1035.922,619.601 Q1030.582,618.355 1025.242,617.198 Q1019.902,616.041 1015.63,614.35 Q1011.358,612.659 1008.599,610.078 Q1005.84,607.497 1005.84,603.581 Q1005.84,600.021 1007.62,597.796 Q1009.4,595.571 1012.248,594.236 Q1015.096,592.901 1018.567,592.367 Q1022.038,591.833 1025.42,591.833 Q1029.158,591.833 1032.807,592.634 Q1036.456,593.435 1039.482,595.215 Q1042.508,596.995 1044.466,599.932 Q1046.424,602.869 1046.78,607.319 L1061.91,607.319 Q1061.376,598.953 1058.35,593.346 Q1055.324,587.739 1050.251,584.446 Q1045.178,581.153 1038.592,579.818 Q1032.006,578.483 1024.174,578.483 Q1018.122,578.483 1011.981,579.996 Q1005.84,581.509 1000.945,584.624 Q996.05,587.739 992.935,592.723 Q989.82,597.707 989.82,604.649 Q989.82,613.549 994.27,618.533 Q998.72,623.517 1005.395,626.276 Q1012.07,629.035 1019.902,630.548 Q1027.734,632.061 1034.409,633.93 Q1041.084,635.799 1045.534,638.825 Q1049.984,641.851 1049.984,647.725 Q1049.984,651.997 1047.848,654.756 Q1045.712,657.515 1042.419,658.939 Q1039.126,660.363 1035.21,660.897 Q1031.294,661.431 1027.734,661.431 Q1023.106,661.431 1018.745,660.541 Q1014.384,659.651 1010.913,657.604 Q1007.442,655.557 1005.306,652.086 Q1003.17,648.615 1002.992,643.631 z" fill="#000000"/>
  </g>
  <defs/>
</svg>
