<?xml version="1.0" encoding="UTF-8"?>
<!DOCTYPE svg PUBLIC "-//W3C//DTD SVG 1.1//EN" "http://www.w3.org/Graphics/SVG/1.1/DTD/svg11.dtd">
<svg version="1.1" xmlns="http://www.w3.org/2000/svg" xmlns:xlink="http://www.w3.org/1999/xlink" x="0px" y="0px" width="610" height="480" viewBox="0, 0, 610, 480">
  <g id="shownotes">
    <path d="M137.262,325.092 C178.15,325.092 211.296,292.42 211.296,252.117 L211.296,76.976 C211.296,36.672 178.15,4 137.262,4 C96.374,4 63.227,36.672 63.227,76.976 L63.227,252.117 C63.227,292.42 96.374,325.092 137.262,325.092 z" fill="#000000"/>
    <path d="M240.91,203.594 L240.91,243.823 C240.91,302.536 194.504,350.8 137.262,350.8 C80.018,350.8 33.614,302.536 33.614,243.823 L33.614,203.594 L4,203.594 L4,249.156 C4,319.51 55.826,372.774 122.455,380.33 L122.455,446.59 L63.227,446.59 L63.227,476.965 L122.455,476.965 L152.069,476.965 L211.296,476.965 L211.296,446.59 L152.069,446.59 L152.069,380.33 C218.697,372.774 270.523,319.51 270.523,249.156 L270.523,203.594 L240.91,203.594 z" fill="#000000"/>
    <path d="M408.617,453.965 L408.617,228.957 C353.099,228.957 305.426,187.273 305.426,128.453 C305.426,69.633 350.433,27.949 405.951,27.949 L607,27.949 L607,72.535 L552.738,72.535 L552.738,453.965 L506.475,453.965 L506.475,72.535 L456.213,72.535 L456.213,453.965 z" fill="#000000"/>
  </g>
  <defs/>
</svg>
